<svg width="148" height="59" viewBox="0 0 148 59" fill="none" xmlns="http://www.w3.org/2000/svg">
<rect x="1" y="1" width="146" height="57" stroke="#E5E5E5" stroke-width="2"/>
<path d="M36.4319 44V15.2421H43.7109V37.7154H50.8706V44H36.4319ZM60.2943 21.5266V37.6359H63.3969V21.5266H60.2943ZM58.7431 44L53.0154 38.4314V20.7311L58.7431 15.2421H64.9481L70.6758 20.7311V38.4314L64.9481 44H58.7431ZM73.2519 39.8633V19.339L77.9057 15.2421H85.8609L90.5942 19.339V26.0213H83.355V21.6062H80.4912V37.6359H83.355V34.6129H81.9231V28.4476H90.5942V39.8633L85.8609 44H77.9057L73.2519 39.8633ZM100.614 21.5266V37.6359H103.717V21.5266H100.614ZM99.0628 44L93.335 38.4314V20.7311L99.0628 15.2421H105.268L110.996 20.7311V38.4314L105.268 44H99.0628Z" fill="#E5E5E5"/>
</svg>
