<?xml version="1.0" encoding="UTF-8"?> <svg xmlns="http://www.w3.org/2000/svg" width="199" height="217" viewBox="0 0 199 217" fill="none"> <mask id="path-1-inside-1_131_266" fill="white"> <path d="M40.7056 0.115172C20.6763 32.0485 7.77344 67.9277 2.87797 105.303C-2.01749 142.679 1.20969 180.671 12.3392 216.686L190.066 161.763C186.839 151.319 185.903 140.301 187.323 129.462C188.742 118.623 192.484 108.218 198.293 98.9574L40.7056 0.115172Z"></path> </mask> <path d="M40.7056 0.115172C20.6763 32.0485 7.77344 67.9277 2.87797 105.303C-2.01749 142.679 1.20969 180.671 12.3392 216.686L190.066 161.763C186.839 151.319 185.903 140.301 187.323 129.462C188.742 118.623 192.484 108.218 198.293 98.9574L40.7056 0.115172Z" fill="#8F9DAB" stroke="#23272A" stroke-width="14" mask="url(#path-1-inside-1_131_266)"></path> </svg> 