<?xml version="1.0" encoding="UTF-8"?> <svg xmlns="http://www.w3.org/2000/svg" width="62" height="208" viewBox="0 0 62 208" fill="none"> <g filter="url(#filter0_d_120_481)"> <rect x="4.87231" y="6.37451" width="41.1702" height="186.125" fill="#464949"></rect> </g> <path d="M2.95745 10.3518V18.3058M2.95745 25.4645V28.6461M6.30851 31.4301V57.6785M3.43617 63.6441V82.3361M2 68.4165V75.9729M6.78723 93.4718V98.642M3.43617 107.789V135.231M6.78723 140.401V155.514M6.78723 119.323V135.231M3.43617 160.286V168.638M2 164.263V167.842M3.43617 173.013V186.137M6.78723 168.638V173.013M6.78723 157.9V159.888M6.78723 101.426V103.017M6.78723 105.005V108.585M6.78723 3.98852H28.8085M21.6277 6.77244H32.6383M36.4681 3.98852H39.8191M14.4468 2H21.6277M43.1702 6.77244V18.3058M47 10.3518V31.4301M47 39.3841V44.1566M47 56.8831V70.0073M47 80.3476V86.3132M47 89.8925V92.2787M47 101.426V111.368M47 123.3C47 123.936 47 131.519 47 135.231M47 140.401V144.776M47 152.332V168.638M43.1702 32.6232V39.3841M43.1702 42.5658V46.9405M43.1702 65.2349V75.9729M43.1702 95.0626V106.198M43.6489 132.049V150.741M43.6489 165.058V178.183M43.6489 180.967V184.148M43.6489 124.493V127.277M43.6489 89.8925V93.4718" stroke="#22232A" stroke-width="3"></path> <path d="M7.74473 187.727H13.0107V184.148H38.383V190.511H33.1171V186.447V185.341H36.9469V188.92H34.5532V186.534L33.1171 186.447V190.511H38.383V184.148H13.0107V187.727V189.318H7.74473V187.727Z" fill="#464949"></path> <path d="M8.70217 30.6344H6.78728V7.16992H21.149V8.76074H15.883M33.1171 7.16992H40.7766V17.1125V19.8964H44.1277V24.6689M43.649 39.3839V42.5655M43.649 51.315V60.8599H41.7341V64.0415H43.649M7.74473 37.3954V54.4966M5.82983 65.6323V79.552M5.82983 82.7336V92.6762H9.1809V97.0509M6.78728 103.414V104.607M5.82983 109.777V118.527H8.70217V134.435M10.1383 123.299V128.47M7.266 137.219V140.003H8.70217V154.32H6.30856M6.30856 159.888V167.842M6.30856 173.012V190.511H14.9256V187.727H7.74473V189.318H13.0107V184.148H38.383V190.511H33.1171V185.341H36.9469V188.92H34.5532V186.534L14.9256 185.341M43.649 184.148V190.511H39.8192L39.3405 187.33L42.2128 187.727V189.318M43.1703 150.741V164.661M41.2554 135.628C41.2554 136.264 41.2554 144.378 41.2554 148.355H39.3405V142.787M43.1703 106.596V124.095M42.2128 98.244V103.414M43.1703 76.768V89.0969H40.7766V92.6762M40.7766 68.814V73.5864" stroke="#666D6F" stroke-width="3"></path> <path d="M17.3191 192.5H4.87231V5.5791H45.5638V192.5H31.6808" stroke="#22232A" stroke-width="3"></path> <defs> <filter id="filter0_d_120_481" x="1.87231" y="3.37451" width="59.1702" height="204.125" filterUnits="userSpaceOnUse" color-interpolation-filters="sRGB"> <feFlood flood-opacity="0" result="BackgroundImageFix"></feFlood> <feColorMatrix in="SourceAlpha" type="matrix" values="0 0 0 0 0 0 0 0 0 0 0 0 0 0 0 0 0 0 127 0" result="hardAlpha"></feColorMatrix> <feOffset dx="6" dy="6"></feOffset> <feGaussianBlur stdDeviation="4.5"></feGaussianBlur> <feComposite in2="hardAlpha" operator="out"></feComposite> <feColorMatrix type="matrix" values="0 0 0 0 0 0 0 0 0 0 0 0 0 0 0 0 0 0 0.25 0"></feColorMatrix> <feBlend mode="normal" in2="BackgroundImageFix" result="effect1_dropShadow_120_481"></feBlend> <feBlend mode="normal" in="SourceGraphic" in2="effect1_dropShadow_120_481" result="shape"></feBlend> </filter> </defs> </svg> 