<?xml version="1.0" encoding="UTF-8"?> <svg xmlns="http://www.w3.org/2000/svg" width="63" height="422" viewBox="0 0 63 422" fill="none"> <g filter="url(#filter0_d_120_476)"> <rect x="5" y="11.2891" width="43" height="395.211" fill="#6D7070"></rect> </g> <path d="M3 19.7338V36.6232M3 51.8236V58.5793M6.5 64.4906V120.225M3.5 132.892V172.582M2 143.026V159.071M7 196.228V207.206M3.5 226.628V284.897M7 295.875V327.965M7 251.118V284.897M3.5 338.098V355.832M2 346.543V354.143M3.5 365.121V392.989M7 355.832V365.121M7 333.031V337.254M7 213.117V216.495M7 220.717V228.317M7 6.22234H30M22.5 12.1336H34M38 6.22234H41.5M15 2H22.5M45 12.1336V36.6232M49 19.7338V64.4906M49 81.38V91.5136M49 118.537V146.404M49 168.36V181.027M49 188.627V193.694M49 213.117V234.229M49 259.563C49 260.914 49 277.015 49 284.897M49 295.875V305.164M49 321.209V355.832M45 67.024V81.38M45 88.1357V97.4248M45 136.27V159.071M45 199.605V223.251M45.5 278.141V317.831M45.5 348.232V376.099M45.5 382.01V388.766M45.5 262.096V268.007M45.5 188.627V196.228" stroke="#22232A" stroke-width="3"></path> <path d="M8 396.366H13.5V388.766H40V402.278H34.5V399.533L15.5 399.702L13.5 399.72V399.744H10.75H8V396.366Z" fill="#6D7070"></path> <path d="M9 62.8016H7V12.978H22V16.3559H16.5M34.5 12.978H42.5V34.0897V40.001H46V50.1346M45.5 81.3799V88.1357M45.5 106.714V126.981H43.5V133.737H45.5M8 77.1576V113.47M6 137.115V166.671M6 173.427V194.539H9.5V203.828M7 217.339V219.873M6 230.851V249.429H9V283.208M10.5 259.563V270.541M7.5 289.119V295.03H9V325.431H6.5M6.5 337.254V354.143M6.5 365.121V402.278H15.5M15.5 402.278V396.366M15.5 402.278V393.833L33.5 395L15.5 391.3M15.5 396.366H8V399.744H10.75M15.5 396.366L34.5 396.789M34.5 391.3H38.5V398.9H36V393.833L15.5 391.3M34.5 391.3H15.5M34.5 391.3V396.789M45.5 388.766V402.278H41.5L41 395.522L44 396.366V399.744M45 317.831V347.387M43 285.741C43 287.092 43 304.319 43 312.764H41V300.941M45 224.095V261.252M44 206.361V217.339M45 160.76V186.938H42.5V194.539M42.5 143.871V154.004M34.5 396.789V399.533M34.5 399.533V402.278H40V388.766H13.5V399.744H10.75M34.5 399.533L10.75 399.744M10.75 397.5H9H12" stroke="#666D6F" stroke-width="3"></path> <path d="M18 406.5H5V9.6001H47.5V406.5H33" stroke="#22232A" stroke-width="3"></path> <defs> <filter id="filter0_d_120_476" x="2" y="8.28906" width="61" height="413.211" filterUnits="userSpaceOnUse" color-interpolation-filters="sRGB"> <feFlood flood-opacity="0" result="BackgroundImageFix"></feFlood> <feColorMatrix in="SourceAlpha" type="matrix" values="0 0 0 0 0 0 0 0 0 0 0 0 0 0 0 0 0 0 127 0" result="hardAlpha"></feColorMatrix> <feOffset dx="6" dy="6"></feOffset> <feGaussianBlur stdDeviation="4.5"></feGaussianBlur> <feComposite in2="hardAlpha" operator="out"></feComposite> <feColorMatrix type="matrix" values="0 0 0 0 0 0 0 0 0 0 0 0 0 0 0 0 0 0 0.25 0"></feColorMatrix> <feBlend mode="normal" in2="BackgroundImageFix" result="effect1_dropShadow_120_476"></feBlend> <feBlend mode="normal" in="SourceGraphic" in2="effect1_dropShadow_120_476" result="shape"></feBlend> </filter> </defs> </svg> 