<?xml version="1.0" encoding="UTF-8"?> <svg xmlns="http://www.w3.org/2000/svg" width="1266" height="856" viewBox="0 0 1266 856" fill="none"> <path d="M682.5 621.579H961M682.5 621.579V745.621M682.5 621.579H2V504.116M682.5 621.579V504.116M961 621.579H1264V504.116M961 621.579V504.116M682.5 745.621V854H366.5V745.621M682.5 745.621H366.5M2 122V2H366.5M2 122H342.25H682.5M2 122V251M1264 122V2H961M1264 122H961M1264 122V251M961 122H682.5M961 122V251M961 122V2M682.5 122V251M682.5 122V2M2 370.991H366.5M2 370.991V251M2 370.991V504.116M366.5 370.991H682.5M366.5 370.991V251M366.5 370.991V504.116M682.5 370.991H961M682.5 370.991V504.116M961 370.991H1264M961 370.991V504.116M1264 370.991V251M1264 370.991V504.116M2 251H366.5M366.5 251H682.5M366.5 251V2M682.5 251H961M961 251H1264M2 504.116H366.5M366.5 504.116H682.5M366.5 504.116V745.621M682.5 504.116H961M961 504.116H1264M366.5 2H682.5M682.5 2H961" stroke="#A5B0BC" stroke-width="3"></path> </svg> 