<?xml version="1.0" encoding="UTF-8"?> <svg xmlns="http://www.w3.org/2000/svg" width="61" height="133" viewBox="0 0 61 133" fill="none"> <g filter="url(#filter0_d_120_498)"> <rect width="41.1702" height="112.848" transform="matrix(-1 0 0 1 45.1277 4.65186)" fill="#464949"></rect> </g> <path d="M47.0426 7.06367V11.8862M47.0426 16.2265V18.1555M43.6915 19.8434V35.7578M46.5638 39.3747V50.7077M48 42.2682V46.8496M43.2128 57.4592V60.5939M46.5638 66.1398V82.7776M43.2128 85.9122V95.0751M43.2128 73.1325V82.7776M46.5638 97.9686V103.032M48 100.38V102.55M46.5638 105.685V113.642M43.2128 103.032V105.685M43.2128 96.5218V97.7275M43.2128 62.2818V63.2463M43.2128 64.4519V66.6221M43.2128 3.20564H21.1915M28.3723 4.89353H17.3617M13.5319 3.20564H10.1809M35.5532 2H28.3723M6.82979 4.89353V11.8862M3 7.06367V19.8434M3 24.666V27.5595M3 35.2755V43.2327M3 49.502V53.119M3 55.2891V56.7359M3 62.2818V68.31M3 75.5438C3 75.9296 3 80.5271 3 82.7776M3 85.9122V88.5646M3 93.1461V103.032M6.82979 20.5668V24.666M6.82979 26.595V29.2474M6.82979 40.3392V46.8496M6.82979 58.4238V65.1753M6.35106 80.8486V92.1816M6.35106 100.862V108.819M6.35106 110.507V112.436M6.35106 76.2672V77.9551M6.35106 55.2891V57.4592" stroke="#22232A" stroke-width="3"></path> <path d="M42.2553 114.606H36.9893V112.436H11.617V116.294H16.8829V113.83V113.159H13.0531V115.329H15.4468V113.883L16.8829 113.83V116.294H11.617V112.436H36.9893V114.606V115.571H42.2553V114.606Z" fill="#464949"></path> <path d="M41.2978 19.3608H43.2127V5.13428H28.851V6.09879H34.117M16.8829 5.13428H9.22336V11.1625V12.8503H5.8723V15.7439M6.35102 24.6656V26.5946M6.35102 31.8994V37.6864H8.26591V39.6155H6.35102M42.2553 23.4599V33.8284M44.1702 40.58V49.0194M44.1702 50.9484V56.9766H40.8191V59.629M43.2127 63.487V64.2104M44.1702 67.3451V72.6499H41.2978V82.295M39.8617 75.5434V78.6781M42.734 83.9829V85.6707H41.2978V94.3513H43.6914M43.6914 97.7271V102.55M43.6914 105.684V116.294H35.0744V114.606H42.2553V115.571H36.9893V112.436H11.617V116.294H16.8829V113.159H13.0531V115.329H15.4468V113.883L35.0744 113.159M6.35102 112.436V116.294H10.1808L10.6595 114.365L7.78719 114.606V115.571M6.82974 92.1812V100.621M8.74464 83.0183C8.74464 83.4041 8.74464 88.3231 8.74464 90.7344H10.6595V87.3586M6.82974 65.4161V76.0257M7.78719 60.3524V63.487M6.82974 47.3315V54.8065H9.22336V56.9766M9.22336 42.509V45.4025" stroke="#666D6F" stroke-width="3"></path> <path d="M32.6809 117.5H45.1277V4.17041H4.4362V117.5H18.3192" stroke="#22232A" stroke-width="3"></path> <defs> <filter id="filter0_d_120_498" x="0.95752" y="1.65186" width="59.1702" height="130.848" filterUnits="userSpaceOnUse" color-interpolation-filters="sRGB"> <feFlood flood-opacity="0" result="BackgroundImageFix"></feFlood> <feColorMatrix in="SourceAlpha" type="matrix" values="0 0 0 0 0 0 0 0 0 0 0 0 0 0 0 0 0 0 127 0" result="hardAlpha"></feColorMatrix> <feOffset dx="6" dy="6"></feOffset> <feGaussianBlur stdDeviation="4.5"></feGaussianBlur> <feComposite in2="hardAlpha" operator="out"></feComposite> <feColorMatrix type="matrix" values="0 0 0 0 0 0 0 0 0 0 0 0 0 0 0 0 0 0 0.25 0"></feColorMatrix> <feBlend mode="normal" in2="BackgroundImageFix" result="effect1_dropShadow_120_498"></feBlend> <feBlend mode="normal" in="SourceGraphic" in2="effect1_dropShadow_120_498" result="shape"></feBlend> </filter> </defs> </svg> 