<?xml version="1.0" encoding="UTF-8"?> <svg xmlns="http://www.w3.org/2000/svg" width="61" height="337" viewBox="0 0 61 337" fill="none"> <g filter="url(#filter0_d_120_492)"> <rect width="41.1702" height="312.163" transform="matrix(-1 0 0 1 45.1277 9.33643)" fill="#6D7070"></rect> </g> <path d="M47.0426 16.0073V29.3476M47.0426 41.3539V46.69M43.6915 51.3591V95.3821M46.5638 105.387V136.737M48 113.391V126.065M43.2128 155.413V164.085M46.5638 179.426V225.45M43.2128 234.121V259.468M43.2128 198.769V225.45M46.5638 267.472V281.479M48 274.142V280.145M46.5638 288.816V310.828M43.2128 281.479V288.816M43.2128 263.47V266.805M43.2128 168.754V171.422M43.2128 174.757V180.76M43.2128 5.33507H21.1915M28.3723 10.0042H17.3617M13.5319 5.33507H10.1809M35.5532 2H28.3723M6.82979 10.0042V29.3476M3 16.0073V51.3591M3 64.6994V72.7036M3 94.0481V116.06M3 133.402V143.407M3 149.41V153.412M3 168.754V185.429M3 205.44C3 206.507 3 219.225 3 225.45M3 234.121V241.458M3 254.132V281.479M6.82979 53.3602V64.6994M6.82979 70.0355V77.3727M6.82979 108.055V126.065M6.82979 158.081V176.758M6.35106 220.114V251.464M6.35106 275.476V297.488M6.35106 302.157V307.493M6.35106 207.441V212.11M6.35106 149.41V155.413" stroke="#22232A" stroke-width="3"></path> <path d="M42.2553 313.496H36.9893V307.493H11.617V318.165H16.8829V311.348V309.494H13.0531V315.497H15.4468V311.495L16.8829 311.348V318.165H11.617V307.493H36.9893V313.496V316.164H42.2553V313.496Z" fill="#6D7070"></path> <path d="M41.2978 50.0248H43.2127V10.6709H28.851V13.339H34.117M16.8829 10.6709H9.22336V27.3463V32.0154H5.8723V40.0196M6.35102 64.6991V70.0352M6.35102 84.7096V100.718H8.26591V106.054H6.35102M42.2553 61.364V90.0457M44.1702 108.722V132.068M44.1702 137.404V154.079H40.8191V161.416M43.2127 172.089V174.09M44.1702 182.761V197.435H41.2978V224.116M39.8617 205.439V214.11M42.734 228.785V233.454H41.2978V257.466H43.6914M43.6914 266.805V280.145M43.6914 288.816V318.165H35.0744V313.496H42.2553V316.164H36.9893V307.493H11.617V318.165H16.8829V309.494H13.0531V315.497H15.4468V311.495L35.0744 309.494M6.35102 307.493V318.165H10.1808L10.6595 312.829L7.78719 313.496V316.164M6.82974 251.463V274.809M8.74464 226.117C8.74464 227.184 8.74464 240.791 8.74464 247.461H10.6595V238.123M6.82974 177.425V206.773M7.78719 163.417V172.089M6.82974 127.399V148.076H9.22336V154.079M9.22336 114.058V122.062" stroke="#666D6F" stroke-width="3"></path> <path d="M32.6809 321.5H45.1277V8.00293H4.4362V321.5H18.3192" stroke="#22232A" stroke-width="3"></path> <rect x="15" y="304" width="21" height="16" fill="#6D7070"></rect> <defs> <filter id="filter0_d_120_492" x="0.95752" y="6.33643" width="59.1702" height="330.163" filterUnits="userSpaceOnUse" color-interpolation-filters="sRGB"> <feFlood flood-opacity="0" result="BackgroundImageFix"></feFlood> <feColorMatrix in="SourceAlpha" type="matrix" values="0 0 0 0 0 0 0 0 0 0 0 0 0 0 0 0 0 0 127 0" result="hardAlpha"></feColorMatrix> <feOffset dx="6" dy="6"></feOffset> <feGaussianBlur stdDeviation="4.5"></feGaussianBlur> <feComposite in2="hardAlpha" operator="out"></feComposite> <feColorMatrix type="matrix" values="0 0 0 0 0 0 0 0 0 0 0 0 0 0 0 0 0 0 0.25 0"></feColorMatrix> <feBlend mode="normal" in2="BackgroundImageFix" result="effect1_dropShadow_120_492"></feBlend> <feBlend mode="normal" in="SourceGraphic" in2="effect1_dropShadow_120_492" result="shape"></feBlend> </filter> </defs> </svg> 