<?xml version="1.0" encoding="UTF-8"?> <svg xmlns="http://www.w3.org/2000/svg" width="216" height="221" viewBox="0 0 216 221" fill="none"> <mask id="path-1-inside-1_131_267" fill="white"> <path d="M197.974 0.495057C157.967 4.28129 119.368 17.2194 85.161 38.3087C50.9543 59.398 22.0572 88.0732 0.704869 122.116L158.292 220.958C164.485 211.085 172.865 202.769 182.785 196.654C192.705 190.538 203.898 186.786 215.5 185.688L197.974 0.495057Z"></path> </mask> <path d="M197.974 0.495057C157.967 4.28129 119.368 17.2194 85.161 38.3087C50.9543 59.398 22.0572 88.0732 0.704869 122.116L158.292 220.958C164.485 211.085 172.865 202.769 182.785 196.654C192.705 190.538 203.898 186.786 215.5 185.688L197.974 0.495057Z" fill="#6A7885" stroke="#23272A" stroke-width="14" mask="url(#path-1-inside-1_131_267)"></path> </svg> 