<?xml version="1.0" encoding="UTF-8"?> <svg xmlns="http://www.w3.org/2000/svg" width="61" height="283" viewBox="0 0 61 283" fill="none"> <g filter="url(#filter0_d_120_503)"> <rect width="41.1702" height="259.403" transform="matrix(-1 0 0 1 45.1277 8.09668)" fill="#6D7070"></rect> </g> <path d="M47.0426 13.6399V24.7255M47.0426 34.7025V39.1368M43.6915 43.0167V79.5992M46.5638 87.9134V113.965M48 94.5648V105.096M43.2128 129.484V136.69M46.5638 149.438V187.684M43.2128 194.889V215.952M43.2128 165.513V187.684M46.5638 222.603V234.243M48 228.146V233.135M46.5638 240.34V258.632M43.2128 234.243V240.34M43.2128 219.278V222.049M43.2128 140.57V142.787M43.2128 145.559V150.547M43.2128 4.7714H21.1915M28.3723 8.65136H17.3617M13.5319 4.7714H10.1809M35.5532 2H28.3723M6.82979 8.65136V24.7255M3 13.6399V43.0167M3 54.1023V60.7537M3 78.4906V96.7819M3 111.193V119.507M3 124.496V127.822M3 140.57V154.427M3 171.055C3 171.942 3 182.511 3 187.684M3 194.889V200.987M3 211.518V234.243M6.82979 44.6796V54.1023M6.82979 58.5366V64.6336M6.82979 90.1305V105.096M6.82979 131.702V147.221M6.35106 183.25V209.301M6.35106 229.255V247.546M6.35106 251.426V255.86M6.35106 172.718V176.598M6.35106 124.496V129.484" stroke="#22232A" stroke-width="3"></path> <path d="M42.2553 260.849H36.9893V255.86H11.617V264.729H16.8829V259.064V257.523H13.0531V262.511H15.4468V259.186L16.8829 259.064V264.729H11.617V255.86H36.9893V260.849V263.066H42.2553V260.849Z" fill="#6D7070"></path> <path d="M41.2978 41.9081H43.2127V9.20557H28.851V11.4227H34.117M16.8829 9.20557H9.22336V23.0626V26.9425H5.8723V33.5939M6.35102 54.1022V58.5365M6.35102 70.7306V84.0334H8.26591V88.4676H6.35102M42.2553 51.3308V75.1649M44.1702 90.6847V110.085M44.1702 114.519V128.376H40.8191V134.473M43.2127 143.341V145.004M44.1702 152.21V164.404H41.2978V186.575M39.8617 171.055V178.261M42.734 190.455V194.335H41.2978V214.289H43.6914M43.6914 222.049V233.135M43.6914 240.34V264.729H35.0744V260.849H42.2553V263.066H36.9893V255.86H11.617V264.729H16.8829V257.523H13.0531V262.511H15.4468V259.186L35.0744 257.523M6.35102 255.86V264.729H10.1808L10.6595 260.294L7.78719 260.849V263.066M6.82974 209.301V228.7M8.74464 188.238C8.74464 189.125 8.74464 200.432 8.74464 205.975H10.6595V198.215M6.82974 147.776V172.164M7.78719 136.136V143.341M6.82974 106.205V123.387H9.22336V128.376M9.22336 95.119V101.77" stroke="#666D6F" stroke-width="3"></path> <path d="M32.6809 267.5H45.1277V6.98877H4.4362V267.5H18.3192" stroke="#22232A" stroke-width="3"></path> <defs> <filter id="filter0_d_120_503" x="0.95752" y="5.09668" width="59.1702" height="277.403" filterUnits="userSpaceOnUse" color-interpolation-filters="sRGB"> <feFlood flood-opacity="0" result="BackgroundImageFix"></feFlood> <feColorMatrix in="SourceAlpha" type="matrix" values="0 0 0 0 0 0 0 0 0 0 0 0 0 0 0 0 0 0 127 0" result="hardAlpha"></feColorMatrix> <feOffset dx="6" dy="6"></feOffset> <feGaussianBlur stdDeviation="4.5"></feGaussianBlur> <feComposite in2="hardAlpha" operator="out"></feComposite> <feColorMatrix type="matrix" values="0 0 0 0 0 0 0 0 0 0 0 0 0 0 0 0 0 0 0.25 0"></feColorMatrix> <feBlend mode="normal" in2="BackgroundImageFix" result="effect1_dropShadow_120_503"></feBlend> <feBlend mode="normal" in="SourceGraphic" in2="effect1_dropShadow_120_503" result="shape"></feBlend> </filter> </defs> </svg> 