<?xml version="1.0" encoding="UTF-8"?> <svg xmlns="http://www.w3.org/2000/svg" width="63" height="287" viewBox="0 0 63 287" fill="none"> <g filter="url(#filter0_d_120_471)"> <rect x="5" y="8.18896" width="43" height="263.311" fill="#555757"></rect> </g> <path d="M3 13.8152V25.0679M3 35.1952V39.6962M6.5 43.6347V80.7683M3.5 89.2077V115.651M2 95.9593V106.649M7 131.405V138.719M3.5 151.66V190.481M7 197.795V219.175M7 167.976V190.481M3.5 225.927V237.742M2 231.553V236.617M3.5 243.931V262.498M7 237.742V243.931M7 222.551V225.364M7 142.658V144.908M7 147.721V152.785M7 4.81315H30M22.5 8.75157H34M38 4.81315H41.5M15 2H22.5M45 8.75157V25.0679M49 13.8152V43.6347M49 54.8873V61.6388M49 79.643V98.2098M49 112.838V121.278M49 126.341V129.717M49 142.658V156.723M49 173.602C49 174.503 49 185.23 49 190.481M49 197.795V203.984M49 214.674V237.742M45 45.3226V54.8873M45 59.3883V65.5773M45 91.4583V106.649M45 133.656V149.409M45.5 185.98V212.424M45.5 232.679V251.245M45.5 255.184V259.685M45.5 175.29V179.229M45.5 126.341V131.405" stroke="#22232A" stroke-width="3"></path> <path d="M8 264.748H13.5V259.685H40V268.687H34.5V262.937V261.372H38.5V266.436H36V263.06L34.5 262.937V268.687H40V259.685H13.5V264.748V266.999H8V264.748Z" fill="#555757"></path> <path d="M9 42.5092H7V9.31396H22V11.5645H16.5M34.5 9.31396H42.5V23.3797V27.3181H46V34.0697M45.5 54.887V59.3881M45.5 71.7659V85.2691H43.5V89.7701H45.5M8 52.0739V76.267M6 92.0206V111.713M6 116.214V130.28H9.5V136.468M7 145.471V147.158M6 154.473V166.85H9V189.356M10.5 173.602V180.916M7.5 193.294V197.233H9V217.487H6.5M6.5 225.364V236.617M6.5 243.931V268.687H15.5V264.748H8V266.999H13.5V259.685H40V268.687H34.5V261.372H38.5V266.436H36V263.06L15.5 261.372M45.5 259.685V268.687H41.5L41 264.186L44 264.748V266.999M45 212.424V232.116M43 191.044C43 191.944 43 203.421 43 209.048H41V201.171M45 149.972V174.727M44 138.156V145.471M45 107.774V125.216H42.5V130.28M42.5 96.5217V103.273" stroke="#666D6F" stroke-width="3"></path> <path d="M18 271.5H5V7.06348H47.5V271.5H33" stroke="#22232A" stroke-width="3"></path> <defs> <filter id="filter0_d_120_471" x="2" y="5.18896" width="61" height="281.311" filterUnits="userSpaceOnUse" color-interpolation-filters="sRGB"> <feFlood flood-opacity="0" result="BackgroundImageFix"></feFlood> <feColorMatrix in="SourceAlpha" type="matrix" values="0 0 0 0 0 0 0 0 0 0 0 0 0 0 0 0 0 0 127 0" result="hardAlpha"></feColorMatrix> <feOffset dx="6" dy="6"></feOffset> <feGaussianBlur stdDeviation="4.5"></feGaussianBlur> <feComposite in2="hardAlpha" operator="out"></feComposite> <feColorMatrix type="matrix" values="0 0 0 0 0 0 0 0 0 0 0 0 0 0 0 0 0 0 0.25 0"></feColorMatrix> <feBlend mode="normal" in2="BackgroundImageFix" result="effect1_dropShadow_120_471"></feBlend> <feBlend mode="normal" in="SourceGraphic" in2="effect1_dropShadow_120_471" result="shape"></feBlend> </filter> </defs> </svg> 