<?xml version="1.0" encoding="UTF-8"?> <svg xmlns="http://www.w3.org/2000/svg" width="63" height="257" viewBox="0 0 63 257" fill="none"> <g filter="url(#filter0_d_120_465)"> <rect x="5" y="7.5" width="43" height="234" fill="#555757"></rect> </g> <path d="M3 12.5V22.5M3 31.5V35.5M6.5 39V72M3.5 79.5V103M2 85.5V95M7 117V123.5M3.5 135V169.5M7 176V195M7 149.5V169.5M3.5 201V211.5M2 206V210.5M3.5 217V233.5M7 211.5V217M7 198V200.5M7 127V129M7 131.5V136M7 4.5H30M22.5 8H34M38 4.5H41.5M15 2H22.5M45 8V22.5M49 12.5V39M49 49V55M49 71V87.5M49 100.5V108M49 112.5V115.5M49 127V139.5M49 154.5C49 155.3 49 164.833 49 169.5M49 176V181.5M49 191V211.5M45 40.5V49M45 53V58.5M45 81.5V95M45 119V133M45.5 165.5V189M45.5 207V223.5M45.5 227V231M45.5 156V159.5M45.5 112.5V117" stroke="#22232A" stroke-width="3"></path> <rect x="15" y="231.5" width="25" height="9" fill="#555757"></rect> <path d="M8 235.5H13.5V231H40V239H34.5V233.89V232.5H38.5V237H36V234L34.5 233.89V239H40V231H13.5V235.5V237.5H8V235.5Z" fill="#555757"></path> <path d="M9 38H7V8.5H22V10.5H16.5M34.5 8.5H42.5V21V24.5H46V30.5M45.5 49V53M45.5 64V76H43.5V80H45.5M8 46.5V68M6 82V99.5M6 103.5V116H9.5V121.5M7 129.5V131M6 137.5V148.5H9V168.5M10.5 154.5V161M7.5 172V175.5H9V193.5H6.5M6.5 200.5V210.5M6.5 217V239H15.5V235.5H8V237.5H13.5V231H40V239H34.5V232.5H38.5V237H36V234L15.5 232.5M45.5 231V239H41.5L41 235L44 235.5V237.5M45 189V206.5M43 170C43 170.8 43 181 43 186H41V179M45 133.5V155.5M44 123V129.5M45 96V111.5H42.5V116M42.5 86V92" stroke="#666D6F" stroke-width="3"></path> <path d="M18 241.5H5V6.5H47.5V241.5H33" stroke="#22232A" stroke-width="3"></path> <defs> <filter id="filter0_d_120_465" x="2" y="4.5" width="61" height="252" filterUnits="userSpaceOnUse" color-interpolation-filters="sRGB"> <feFlood flood-opacity="0" result="BackgroundImageFix"></feFlood> <feColorMatrix in="SourceAlpha" type="matrix" values="0 0 0 0 0 0 0 0 0 0 0 0 0 0 0 0 0 0 127 0" result="hardAlpha"></feColorMatrix> <feOffset dx="6" dy="6"></feOffset> <feGaussianBlur stdDeviation="4.5"></feGaussianBlur> <feComposite in2="hardAlpha" operator="out"></feComposite> <feColorMatrix type="matrix" values="0 0 0 0 0 0 0 0 0 0 0 0 0 0 0 0 0 0 0.25 0"></feColorMatrix> <feBlend mode="normal" in2="BackgroundImageFix" result="effect1_dropShadow_120_465"></feBlend> <feBlend mode="normal" in="SourceGraphic" in2="effect1_dropShadow_120_465" result="shape"></feBlend> </filter> </defs> </svg> 