<?xml version="1.0" encoding="UTF-8"?> <svg xmlns="http://www.w3.org/2000/svg" width="61" height="182" viewBox="0 0 61 182" fill="none"> <g filter="url(#filter0_d_120_486)"> <rect width="41.1702" height="160.722" transform="matrix(-1 0 0 1 45.1277 5.77734)" fill="#464949"></rect> </g> <path d="M47.0426 9.2119V16.0804M47.0426 22.262V25.0094M43.6915 27.4134V50.0793M46.5638 55.2307V71.3716M48 59.3518V65.8768M43.2128 80.9875V85.452M46.5638 93.3507V117.047M43.2128 121.511V134.562M43.2128 103.31V117.047M46.5638 138.683V145.895M48 142.117V145.208M46.5638 149.672V161.005M43.2128 145.895V149.672M43.2128 136.622V138.339M43.2128 87.8559V89.2296M43.2128 90.9467V94.0376M43.2128 3.71712H21.1915M28.3723 6.12108H17.3617M13.5319 3.71712H10.1809M35.5532 2H28.3723M6.82979 6.12108V16.0804M3 9.2119V27.4134M3 34.2818V38.4029M3 49.3925V60.7255M3 69.6545V74.8058M3 77.8966V79.9572M3 87.8559V96.4415M3 106.744C3 107.294 3 113.842 3 117.047M3 121.511V125.289M3 131.814V145.895M6.82979 28.4436V34.2818M6.82979 37.0292V40.8069M6.82979 56.6044V65.8768M6.82979 82.3612V91.977M6.35106 114.3V130.44M6.35106 142.804V154.137M6.35106 156.541V159.288M6.35106 107.775V110.178M6.35106 77.8966V80.9875" stroke="#22232A" stroke-width="3"></path> <path d="M42.2553 162.379H36.9893V159.288H11.617V164.783H16.8829V161.273V160.318H13.0531V163.409H15.4468V161.348L16.8829 161.273V164.783H11.617V159.288H36.9893V162.379V163.752H42.2553V162.379Z" fill="#464949"></path> <path d="M41.2978 26.7264H43.2127V6.46436H28.851V7.83805H34.117M16.8829 6.46436H9.22336V15.0499V17.4539H5.8723V21.575M6.35102 34.2817V37.0291M6.35102 44.5844V52.8266H8.26591V55.574H6.35102M42.2553 32.5646V47.3318M44.1702 56.9476V68.9675M44.1702 71.7149V80.3005H40.8191V84.0781M43.2127 89.5729V90.6032M44.1702 95.0677V102.623H41.2978V116.36M39.8617 106.744V111.209M42.734 118.764V121.168H41.2978V133.531H43.6914M43.6914 138.339V145.208M43.6914 149.672V164.783H35.0744V162.379H42.2553V163.752H36.9893V159.288H11.617V164.783H16.8829V160.318H13.0531V163.409H15.4468V161.348L35.0744 160.318M6.35102 159.288V164.783H10.1808L10.6595 162.035L7.78719 162.379V163.752M6.82974 130.44V142.46M8.74464 117.39C8.74464 117.94 8.74464 124.946 8.74464 128.38H10.6595V123.572M6.82974 92.3203V107.431M7.78719 85.1084V89.5729M6.82974 66.5635V77.2096H9.22336V80.3005M9.22336 59.695V63.8161" stroke="#666D6F" stroke-width="3"></path> <path d="M32.6809 166.5H45.1277V5.09082H4.4362V166.5H18.3192" stroke="#22232A" stroke-width="3"></path> <rect x="8" y="146" width="36" height="17" fill="#464949"></rect> <defs> <filter id="filter0_d_120_486" x="0.95752" y="2.77734" width="59.1702" height="178.722" filterUnits="userSpaceOnUse" color-interpolation-filters="sRGB"> <feFlood flood-opacity="0" result="BackgroundImageFix"></feFlood> <feColorMatrix in="SourceAlpha" type="matrix" values="0 0 0 0 0 0 0 0 0 0 0 0 0 0 0 0 0 0 127 0" result="hardAlpha"></feColorMatrix> <feOffset dx="6" dy="6"></feOffset> <feGaussianBlur stdDeviation="4.5"></feGaussianBlur> <feComposite in2="hardAlpha" operator="out"></feComposite> <feColorMatrix type="matrix" values="0 0 0 0 0 0 0 0 0 0 0 0 0 0 0 0 0 0 0.25 0"></feColorMatrix> <feBlend mode="normal" in2="BackgroundImageFix" result="effect1_dropShadow_120_486"></feBlend> <feBlend mode="normal" in="SourceGraphic" in2="effect1_dropShadow_120_486" result="shape"></feBlend> </filter> </defs> </svg> 